<svg xmlns="http://www.w3.org/2000/svg" width="252.41" height="40" viewBox="0 0 252.41 40"><path fill="#343434" d="M11.024000000000001 33.256C14.128 33.256 17.200000000000003 31.816 19.44 29.512C19.664 29.256 19.792 29.0 19.792 28.712C19.792 28.264 19.44 27.912 18.96 27.912C18.64 27.912 18.352 28.04 18.096 28.296C15.952 30.504 13.68 31.4 11.44 31.4C8.432 31.4 5.552 29.352 5.552 25.512C5.552 20.36 11.088000000000001 13.192 15.76 13.192C18.096 13.192 18.96 14.120000000000001 19.632 14.887999999999998L19.568 15.143999999999998C19.44 15.655999999999999 19.824 16.104 20.336000000000002 16.104C20.976 16.104 21.424 15.559999999999999 21.552 15.111999999999998L22.032 13.096C22.16 12.552 21.776 12.104 21.232 12.104C20.848 12.104 20.496 12.36 20.272000000000002 12.648C19.44 11.943999999999999 18.096 11.303999999999998 16.240000000000002 11.303999999999998C10.288 11.303999999999998 3.568 19.464 3.568 25.832C3.568 30.184 6.64 33.256 11.024000000000001 33.256ZM27.6 33.192C29.328 33.192 31.119999999999997 32.424 32.464 31.464L32.24 32.456C32.112 33.032 32.4 33.448 32.976 33.448C33.488 33.448 34.0 33.064 34.16 32.424L37.104 18.536C36.656 18.28 34.896 17.224 32.528 17.224C27.088 17.224 22.736 23.304000000000002 22.736 28.168C22.736 31.24 24.688 33.192 27.6 33.192ZM27.951999999999998 31.4C25.936 31.4 24.72 30.376 24.72 27.816C24.72 23.592 28.496 19.048000000000002 32.24 19.048000000000002C33.296 19.048000000000002 34.448 19.432000000000002 34.992 19.688L32.784 29.512C31.887999999999998 30.216 29.84 31.4 27.951999999999998 31.4ZM39.888000000000005 33.192C40.368 33.192 40.912000000000006 32.776 41.040000000000006 32.296L42.57600000000001 25.096C42.800000000000004 24.072 43.568000000000005 22.728 44.592000000000006 21.64C45.84 20.36 47.536 19.016 49.008 19.016C49.712 19.016 49.904 19.336 49.904 19.72C49.904 20.136 49.712 20.648 49.648 20.936C49.616 21.224 49.776 21.704 50.384 21.704C50.928000000000004 21.704 51.408 21.32 51.536 20.808C51.664 20.232 51.856 19.560000000000002 51.856 19.016C51.856 18.055999999999997 51.312000000000005 17.128 49.68000000000001 17.128C47.504000000000005 17.128 44.976000000000006 18.92 43.504000000000005 20.904L44.080000000000005 18.152C44.176 17.671999999999997 43.856 17.224 43.28 17.224C42.800000000000004 17.224 42.224000000000004 17.64 42.128 18.152L39.088 32.296C38.992000000000004 32.776 39.440000000000005 33.192 39.888000000000005 33.192Z"/><path fill="#74808b" d="M86.706 22.265625V23.671875L80.565375 29.8125L78.690375 27.9375L82.331 24.296875H63.284125V21.640625H82.331L78.690375 18.0L80.565375 16.125Z"/><path fill="#7030a0" d="M100.71650000000001 33.192C101.22850000000001 33.192 101.77250000000001 32.776 101.86850000000001 32.264L102.8605 27.496C103.43650000000001 24.936 103.94850000000001 23.848 105.48450000000001 22.216C106.9565 20.616 109.00450000000001 19.016 110.54050000000001 19.016C112.33250000000001 19.016 112.84450000000001 20.168 112.2685 22.92L110.28450000000001 32.264C110.1885 32.776 110.54050000000001 33.192 111.05250000000001 33.192C111.5965 33.192 112.1085 32.776 112.20450000000001 32.264L113.74050000000001 24.936C114.54050000000001 21.256 118.3165 19.016 120.04450000000001 19.016C121.74050000000001 19.016 122.41250000000001 20.136 121.8045 22.92L119.8525 32.264C119.7245 32.776 120.07650000000001 33.192 120.58850000000001 33.192C121.10050000000001 33.192 121.64450000000001 32.776 121.77250000000001 32.264L123.69250000000001 23.144C124.58850000000001 18.856 123.1165 17.224 120.6525 17.224C118.98850000000002 17.224 116.6525 18.152 114.41250000000001 20.872C114.41250000000001 17.96 112.7485 17.224 111.18050000000001 17.224C109.00450000000001 17.224 106.0605 19.176000000000002 104.07650000000001 21.991999999999997L104.87650000000001 18.183999999999997C104.97250000000001 17.671999999999997 104.6525 17.224 104.1085 17.224C103.5965 17.224 103.05250000000001 17.671999999999997 102.9565 18.183999999999997L99.94850000000001 32.264C99.8525 32.776 100.20450000000001 33.192 100.71650000000001 33.192ZM131.75650000000002 33.192C136.8125 33.192 141.19650000000001 27.816 141.19650000000001 22.823999999999998C141.19650000000001 19.624000000000002 139.24450000000002 17.192 136.1405 17.192C131.08450000000002 17.192 126.66850000000001 22.567999999999998 126.66850000000001 27.56C126.66850000000001 30.792 128.6525 33.192 131.75650000000002 33.192ZM132.2365 31.528C129.8685 31.528 128.5885 29.864 128.5885 27.336C128.5885 23.4 132.01250000000002 18.856 135.6285 18.856C137.99650000000003 18.856 139.27650000000003 20.552 139.27650000000003 23.08C139.27650000000003 27.016 135.85250000000002 31.528 132.2365 31.528ZM145.48450000000003 33.224C145.96450000000002 33.224 146.5405 32.808 146.66850000000002 32.296L149.48450000000003 19.048000000000002H153.13250000000002C153.7405 19.048000000000002 154.31650000000002 18.536 154.31650000000002 17.96C154.31650000000002 17.512 154.0285 17.192 153.54850000000002 17.192H149.8685L150.7965 12.744C150.92450000000002 12.296 150.7005 11.751999999999999 150.06050000000002 11.751999999999999C149.54850000000002 11.751999999999999 148.97250000000003 12.232 148.87650000000002 12.744L147.94850000000002 17.192H144.36450000000002C143.7245 17.192 143.1165 17.64 143.1165 18.28C143.1165 18.759999999999998 143.4685 19.048000000000002 143.8845 19.048000000000002H147.5645L144.71650000000002 32.264C144.62050000000002 32.744 144.87650000000002 33.224 145.48450000000003 33.224ZM158.7965 33.192C163.85250000000002 33.192 168.2365 27.816 168.2365 22.823999999999998C168.2365 19.624000000000002 166.2845 17.192 163.1805 17.192C158.1245 17.192 153.70850000000002 22.567999999999998 153.70850000000002 27.56C153.70850000000002 30.792 155.6925 33.192 158.7965 33.192ZM159.2765 31.528C156.9085 31.528 155.6285 29.864 155.6285 27.336C155.6285 23.4 159.0525 18.856 162.6685 18.856C165.03650000000002 18.856 166.31650000000002 20.552 166.31650000000002 23.08C166.31650000000002 27.016 162.8925 31.528 159.2765 31.528ZM171.2125 33.192C171.6925 33.192 172.2365 32.776 172.3645 32.296L173.9005 25.096C174.1245 24.072 174.8925 22.728 175.9165 21.64C177.1645 20.36 178.8605 19.016 180.3325 19.016C181.0365 19.016 181.2285 19.336 181.2285 19.72C181.2285 20.136 181.0365 20.648 180.9725 20.936C180.94050000000001 21.224 181.1005 21.704 181.70850000000002 21.704C182.2525 21.704 182.73250000000002 21.32 182.8605 20.808C182.98850000000002 20.232 183.1805 19.560000000000002 183.1805 19.016C183.1805 18.055999999999997 182.6365 17.128 181.0045 17.128C178.8285 17.128 176.3005 18.92 174.8285 20.904L175.4045 18.152C175.50050000000002 17.671999999999997 175.1805 17.224 174.6045 17.224C174.1245 17.224 173.5485 17.64 173.45250000000001 18.152L170.4125 32.296C170.3165 32.776 170.7645 33.192 171.2125 33.192ZM189.03650000000002 33.192C191.5645 33.192 194.06050000000002 31.72 195.3725 30.28C195.6605 29.96 195.85250000000002 29.704 195.85250000000002 29.352C195.85250000000002 28.936 195.5325 28.648 195.08450000000002 28.648C194.7005 28.648 194.3805 28.872 194.0925 29.192C192.87650000000002 30.472 191.3085 31.432 189.3565 31.432C187.2765 31.432 185.13250000000002 30.152 185.13250000000002 27.368000000000002C185.13250000000002 23.912 188.87650000000002 19.016 192.10850000000002 19.016C193.7405 19.016 194.47650000000002 19.72 195.1165 20.744C195.24450000000002 20.904 195.43650000000002 21.032 195.7245 21.032C196.3325 21.032 196.9085 20.52 196.9085 19.912C196.9085 19.752 196.8445 19.560000000000002 196.7485 19.4C195.85250000000002 18.055999999999997 194.7965 17.224 192.46050000000002 17.224C188.20450000000002 17.224 183.24450000000002 23.016 183.24450000000002 27.752C183.24450000000002 31.016 185.7725 33.192 189.03650000000002 33.192ZM198.4765 39.432C198.9565 39.432 199.3405 39.112 199.5005 38.824L213.1005 18.6C213.2605 18.375999999999998 213.3565 18.119999999999997 213.3565 17.927999999999997C213.3565 17.48 213.0045 17.16 212.5565 17.16C212.0765 17.16 211.6925 17.48 211.5005 17.768L204.0125 28.904L200.8765 17.832C200.7805 17.48 200.4925 17.192 200.1085 17.192C199.5005 17.192 198.8925 17.735999999999997 198.8925 18.408C198.8925 18.6 198.9245 18.695999999999998 199.0205 18.951999999999998L202.4765 31.176L197.9325 37.96C197.8045 38.184 197.7085 38.408 197.7085 38.696C197.7085 39.112 198.0285 39.432 198.4765 39.432ZM218.7645 33.192C221.2925 33.192 223.7885 31.72 225.10049999999998 30.28C225.3885 29.96 225.5805 29.704 225.5805 29.352C225.5805 28.936 225.26049999999998 28.648 224.8125 28.648C224.42849999999999 28.648 224.1085 28.872 223.82049999999998 29.192C222.6045 30.472 221.0365 31.432 219.0845 31.432C217.00449999999998 31.432 214.8605 30.152 214.8605 27.368000000000002C214.8605 23.912 218.6045 19.016 221.8365 19.016C223.4685 19.016 224.2045 19.72 224.84449999999998 20.744C224.9725 20.904 225.1645 21.032 225.4525 21.032C226.0605 21.032 226.63649999999998 20.52 226.63649999999998 19.912C226.63649999999998 19.752 226.5725 19.560000000000002 226.4765 19.4C225.5805 18.055999999999997 224.5245 17.224 222.1885 17.224C217.9325 17.224 212.9725 23.016 212.9725 27.752C212.9725 31.016 215.5005 33.192 218.7645 33.192ZM229.1325 33.192C229.61249999999998 33.192 230.1565 32.808 230.28449999999998 32.328L234.54049999999998 12.104C234.6685 11.591999999999999 234.3165 11.175999999999998 233.8045 11.175999999999998C233.26049999999998 11.175999999999998 232.74849999999998 11.591999999999999 232.6205 12.104L228.33249999999998 32.264C228.20449999999997 32.808 228.65249999999997 33.192 229.1325 33.192ZM242.0925 33.192C244.0445 33.192 246.4445 32.168 247.82049999999998 30.887999999999998C248.0445 30.695999999999998 248.23649999999998 30.376 248.23649999999998 30.056C248.23649999999998 29.64 247.9485 29.384 247.5005 29.384C247.2765 29.384 246.9885 29.48 246.8285 29.64C245.7405 30.632 243.82049999999998 31.4 242.2525 31.4C239.91649999999998 31.4 237.9965 30.344 237.61249999999998 28.232L248.84449999999998 22.503999999999998C249.5485 22.152 249.8045 21.832 249.8045 21.096C249.8045 19.624000000000002 248.3965 17.224 244.68449999999999 17.224C239.8845 17.224 235.56449999999998 22.344 235.56449999999998 27.208C235.56449999999998 30.536 237.9005 33.192 242.0925 33.192ZM237.3885 26.503999999999998C237.3885 25.192 238.2205 23.144 239.2765 21.799999999999997C240.58849999999998 20.104 242.4125 19.016 244.49249999999998 19.016C246.63649999999998 19.016 247.7565 19.816 247.9485 21.288Z"/></svg>