<svg xmlns="http://www.w3.org/2000/svg" width="357.89" height="40" viewBox="0 0 357.89 40"><path fill="#343434" d="M11.024000000000001 33.256C14.128 33.256 17.200000000000003 31.816 19.44 29.512C19.664 29.256 19.792 29.0 19.792 28.712C19.792 28.264 19.44 27.912 18.96 27.912C18.64 27.912 18.352 28.04 18.096 28.296C15.952 30.504 13.68 31.4 11.44 31.4C8.432 31.4 5.552 29.352 5.552 25.512C5.552 20.36 11.088000000000001 13.192 15.76 13.192C18.096 13.192 18.96 14.120000000000001 19.632 14.887999999999998L19.568 15.143999999999998C19.44 15.655999999999999 19.824 16.104 20.336000000000002 16.104C20.976 16.104 21.424 15.559999999999999 21.552 15.111999999999998L22.032 13.096C22.16 12.552 21.776 12.104 21.232 12.104C20.848 12.104 20.496 12.36 20.272000000000002 12.648C19.44 11.943999999999999 18.096 11.303999999999998 16.240000000000002 11.303999999999998C10.288 11.303999999999998 3.568 19.464 3.568 25.832C3.568 30.184 6.64 33.256 11.024000000000001 33.256ZM23.44 33.224C23.92 33.224 24.496 32.84 24.624 32.2L25.744 26.984C25.968 25.928 26.256 24.968 26.928 24.072C28.624 21.799999999999997 31.439999999999998 19.016 33.519999999999996 19.016C34.512 19.016 34.992 19.848 34.992 21.799999999999997C34.992 24.968 33.903999999999996 29.032 33.168 32.328C33.072 32.84 33.488 33.192 33.936 33.192C34.448 33.192 34.864000000000004 32.776 35.024 32.264C35.824 29.768 36.944 24.04 36.944 21.352C36.944 18.536 36.08 17.128 34.096000000000004 17.128C31.375999999999998 17.128 28.144 20.2 26.736 22.247999999999998L28.88 12.168C28.976 11.719999999999999 28.752 11.175999999999998 28.144 11.175999999999998C27.6 11.175999999999998 27.056 11.655999999999999 26.96 12.168L22.672 32.264C22.576 32.744 22.896 33.224 23.44 33.224ZM44.816 33.192C46.544000000000004 33.192 48.336000000000006 32.424 49.68000000000001 31.464L49.456 32.456C49.328 33.032 49.61600000000001 33.448 50.19200000000001 33.448C50.70400000000001 33.448 51.21600000000001 33.064 51.376000000000005 32.424L54.32000000000001 18.536C53.87200000000001 18.28 52.11200000000001 17.224 49.74400000000001 17.224C44.304 17.224 39.952000000000005 23.304000000000002 39.952000000000005 28.168C39.952000000000005 31.24 41.904 33.192 44.816 33.192ZM45.168000000000006 31.4C43.152 31.4 41.93600000000001 30.376 41.93600000000001 27.816C41.93600000000001 23.592 45.712 19.048000000000002 49.456 19.048000000000002C50.512 19.048000000000002 51.664 19.432000000000002 52.208000000000006 19.688L50.00000000000001 29.512C49.104000000000006 30.216 47.056000000000004 31.4 45.168000000000006 31.4ZM57.136 33.192C57.68000000000001 33.192 58.160000000000004 32.744 58.25600000000001 32.168L58.89600000000001 29.32C59.408 27.016 60.464000000000006 24.808 62.544000000000004 22.216C64.11200000000001 20.264 65.808 19.016 67.248 19.016C69.328 19.016 70.06400000000001 20.136 68.816 25.928C68.048 29.48 67.792 30.792 67.504 32.232C67.408 32.744 67.72800000000001 33.192 68.24000000000001 33.192C68.784 33.192 69.232 32.744 69.328 32.2C69.616 30.759999999999998 69.936 29.448 70.83200000000001 25.288C72.048 19.624000000000002 71.05600000000001 17.224 67.792 17.224C65.168 17.224 62.25600000000001 19.432000000000002 60.176 23.368000000000002L61.29600000000001 18.119999999999997C61.42400000000001 17.608 61.040000000000006 17.192 60.528000000000006 17.192C60.016000000000005 17.192 59.504000000000005 17.608 59.34400000000001 18.119999999999997L56.336000000000006 32.296C56.24 32.776 56.624 33.192 57.136 33.192ZM77.584 39.048C81.328 39.048 84.528 37.032 85.584 32.52L89.00800000000001 17.927999999999997C89.136 17.352 88.912 16.84 88.24000000000001 16.84C87.504 16.84 87.184 17.416 87.024 18.183999999999997C86.28800000000001 17.704 85.232 17.192 83.76 17.192C78.864 17.192 74.256 22.247999999999998 74.224 27.464C74.19200000000001 31.08 76.272 33.192 79.12 33.192C80.784 33.16 82.608 32.296 84.048 30.759999999999998L83.632 32.424C82.96000000000001 34.984 81.616 37.128 77.968 37.128C75.632 37.128 75.024 36.68 74.384 36.68C73.712 36.68 73.2 37.32 73.2 37.864C73.2 38.216 73.456 38.504 73.904 38.6C74.64 38.792 76.08 39.048 77.584 39.048ZM79.28 31.368C77.296 31.368 75.98400000000001 29.864 75.98400000000001 27.144C75.98400000000001 23.048000000000002 79.504 19.08 83.47200000000001 19.08C84.688 19.08 85.904 19.528 86.48 20.104L85.488 24.648C84.4 29.736 81.456 31.368 79.28 31.368ZM97.584 33.192C99.536 33.192 101.936 32.168 103.31200000000001 30.887999999999998C103.536 30.695999999999998 103.72800000000001 30.376 103.72800000000001 30.056C103.72800000000001 29.64 103.44000000000001 29.384 102.992 29.384C102.768 29.384 102.48 29.48 102.32000000000001 29.64C101.232 30.632 99.31200000000001 31.4 97.744 31.4C95.408 31.4 93.48800000000001 30.344 93.10400000000001 28.232L104.33600000000001 22.503999999999998C105.04 22.152 105.296 21.832 105.296 21.096C105.296 19.624000000000002 103.888 17.224 100.176 17.224C95.376 17.224 91.05600000000001 22.344 91.05600000000001 27.208C91.05600000000001 30.536 93.39200000000001 33.192 97.584 33.192ZM92.88000000000001 26.503999999999998C92.88000000000001 25.192 93.712 23.144 94.768 21.799999999999997C96.08000000000001 20.104 97.90400000000001 19.016 99.98400000000001 19.016C102.12800000000001 19.016 103.248 19.816 103.44000000000001 21.288ZM118.35200000000002 33.192C118.86400000000002 33.192 119.40800000000002 32.776 119.50400000000002 32.264L120.49600000000001 27.496C121.07200000000002 24.936 121.58400000000002 23.848 123.12000000000002 22.216C124.59200000000001 20.616 126.64000000000001 19.016 128.17600000000002 19.016C129.96800000000002 19.016 130.48000000000002 20.168 129.90400000000002 22.92L127.92000000000002 32.264C127.82400000000001 32.776 128.17600000000002 33.192 128.68800000000002 33.192C129.23200000000003 33.192 129.74400000000003 32.776 129.84000000000003 32.264L131.376 24.936C132.17600000000002 21.256 135.95200000000003 19.016 137.68 19.016C139.376 19.016 140.048 20.136 139.44000000000003 22.92L137.48800000000003 32.264C137.36 32.776 137.71200000000002 33.192 138.22400000000002 33.192C138.73600000000002 33.192 139.28000000000003 32.776 139.40800000000002 32.264L141.32800000000003 23.144C142.22400000000002 18.856 140.752 17.224 138.288 17.224C136.62400000000002 17.224 134.288 18.152 132.048 20.872C132.048 17.96 130.38400000000001 17.224 128.81600000000003 17.224C126.64000000000001 17.224 123.69600000000001 19.176000000000002 121.71200000000002 21.991999999999997L122.51200000000001 18.183999999999997C122.60800000000002 17.671999999999997 122.28800000000001 17.224 121.74400000000001 17.224C121.23200000000001 17.224 120.68800000000002 17.671999999999997 120.59200000000001 18.183999999999997L117.58400000000002 32.264C117.48800000000001 32.776 117.84000000000002 33.192 118.35200000000002 33.192ZM149.04000000000002 33.192C150.76800000000003 33.192 152.56000000000003 32.424 153.90400000000002 31.464L153.68000000000004 32.456C153.55200000000002 33.032 153.84000000000003 33.448 154.41600000000003 33.448C154.92800000000003 33.448 155.44000000000003 33.064 155.60000000000002 32.424L158.544 18.536C158.09600000000003 18.28 156.336 17.224 153.96800000000002 17.224C148.52800000000002 17.224 144.17600000000002 23.304000000000002 144.17600000000002 28.168C144.17600000000002 31.24 146.12800000000001 33.192 149.04000000000002 33.192ZM149.39200000000002 31.4C147.37600000000003 31.4 146.16000000000003 30.376 146.16000000000003 27.816C146.16000000000003 23.592 149.93600000000004 19.048000000000002 153.68000000000004 19.048000000000002C154.73600000000002 19.048000000000002 155.88800000000003 19.432000000000002 156.43200000000002 19.688L154.22400000000002 29.512C153.32800000000003 30.216 151.28000000000003 31.4 149.39200000000002 31.4ZM162.64000000000004 33.224C163.12000000000003 33.224 163.69600000000003 32.808 163.82400000000004 32.296L166.64000000000004 19.048000000000002H170.28800000000004C170.89600000000002 19.048000000000002 171.47200000000004 18.536 171.47200000000004 17.96C171.47200000000004 17.512 171.18400000000003 17.192 170.70400000000004 17.192H167.02400000000003L167.95200000000003 12.744C168.08000000000004 12.296 167.85600000000002 11.751999999999999 167.21600000000004 11.751999999999999C166.70400000000004 11.751999999999999 166.12800000000004 12.232 166.03200000000004 12.744L165.10400000000004 17.192H161.52000000000004C160.88000000000002 17.192 160.27200000000002 17.64 160.27200000000002 18.28C160.27200000000002 18.759999999999998 160.62400000000002 19.048000000000002 161.04000000000002 19.048000000000002H164.72000000000003L161.87200000000004 32.264C161.77600000000004 32.744 162.03200000000004 33.224 162.64000000000004 33.224ZM177.42400000000004 33.192C179.37600000000003 33.192 181.776 32.168 183.15200000000002 30.887999999999998C183.37600000000003 30.695999999999998 183.568 30.376 183.568 30.056C183.568 29.64 183.28000000000003 29.384 182.83200000000002 29.384C182.60800000000003 29.384 182.32000000000002 29.48 182.16000000000003 29.64C181.07200000000003 30.632 179.15200000000002 31.4 177.58400000000003 31.4C175.24800000000002 31.4 173.32800000000003 30.344 172.94400000000002 28.232L184.17600000000002 22.503999999999998C184.88000000000002 22.152 185.13600000000002 21.832 185.13600000000002 21.096C185.13600000000002 19.624000000000002 183.72800000000004 17.224 180.01600000000002 17.224C175.21600000000004 17.224 170.89600000000002 22.344 170.89600000000002 27.208C170.89600000000002 30.536 173.23200000000003 33.192 177.42400000000004 33.192ZM172.72000000000003 26.503999999999998C172.72000000000003 25.192 173.55200000000002 23.144 174.60800000000003 21.799999999999997C175.92000000000002 20.104 177.74400000000003 19.016 179.824 19.016C181.96800000000002 19.016 183.08800000000002 19.816 183.28000000000003 21.288ZM187.53600000000003 33.192C188.01600000000002 33.192 188.56000000000003 32.776 188.68800000000002 32.296L190.22400000000002 25.096C190.44800000000004 24.072 191.21600000000004 22.728 192.24000000000004 21.64C193.48800000000003 20.36 195.18400000000003 19.016 196.65600000000003 19.016C197.36 19.016 197.55200000000002 19.336 197.55200000000002 19.72C197.55200000000002 20.136 197.36 20.648 197.29600000000002 20.936C197.26400000000004 21.224 197.42400000000004 21.704 198.03200000000004 21.704C198.57600000000002 21.704 199.05600000000004 21.32 199.18400000000003 20.808C199.31200000000004 20.232 199.50400000000002 19.560000000000002 199.50400000000002 19.016C199.50400000000002 18.055999999999997 198.96000000000004 17.128 197.32800000000003 17.128C195.15200000000002 17.128 192.62400000000002 18.92 191.15200000000002 20.904L191.72800000000004 18.152C191.82400000000004 17.671999999999997 191.50400000000002 17.224 190.92800000000003 17.224C190.44800000000004 17.224 189.872 17.64 189.77600000000004 18.152L186.73600000000002 32.296C186.64000000000001 32.776 187.08800000000002 33.192 187.53600000000003 33.192ZM204.40000000000003 14.631999999999998C204.88000000000002 14.631999999999998 205.42400000000004 14.248000000000001 205.55200000000005 13.672L205.84000000000003 12.392C205.96800000000005 11.911999999999999 205.68000000000004 11.431999999999999 205.13600000000002 11.431999999999999C204.62400000000002 11.431999999999999 204.11200000000002 11.847999999999999 203.98400000000004 12.36L203.66400000000004 13.64C203.53600000000003 14.216000000000001 203.95200000000003 14.631999999999998 204.40000000000003 14.631999999999998ZM200.27200000000005 33.192C200.84800000000004 33.192 201.32800000000003 32.744 201.45600000000005 32.2L204.59200000000004 18.344C204.75200000000004 17.799999999999997 204.40000000000003 17.32 203.82400000000004 17.32C203.24800000000005 17.32 202.76800000000003 17.768 202.60800000000003 18.311999999999998L199.47200000000004 32.2C199.37600000000003 32.648 199.66400000000004 33.192 200.27200000000005 33.192ZM211.63200000000003 33.192C213.36000000000004 33.192 215.15200000000004 32.424 216.49600000000004 31.464L216.27200000000005 32.456C216.14400000000003 33.032 216.43200000000004 33.448 217.00800000000004 33.448C217.52000000000004 33.448 218.03200000000004 33.064 218.19200000000004 32.424L221.13600000000002 18.536C220.68800000000005 18.28 218.92800000000003 17.224 216.56000000000003 17.224C211.12000000000003 17.224 206.76800000000003 23.304000000000002 206.76800000000003 28.168C206.76800000000003 31.24 208.72000000000003 33.192 211.63200000000003 33.192ZM211.98400000000004 31.4C209.96800000000005 31.4 208.75200000000004 30.376 208.75200000000004 27.816C208.75200000000004 23.592 212.52800000000005 19.048000000000002 216.27200000000005 19.048000000000002C217.32800000000003 19.048000000000002 218.48000000000005 19.432000000000002 219.02400000000003 19.688L216.81600000000003 29.512C215.92000000000004 30.216 213.87200000000004 31.4 211.98400000000004 31.4ZM223.95200000000006 33.192C224.43200000000004 33.192 224.97600000000006 32.808 225.10400000000004 32.328L229.36000000000004 12.104C229.48800000000006 11.591999999999999 229.13600000000005 11.175999999999998 228.62400000000005 11.175999999999998C228.08000000000004 11.175999999999998 227.56800000000004 11.591999999999999 227.44000000000005 12.104L223.15200000000004 32.264C223.02400000000003 32.808 223.47200000000004 33.192 223.95200000000006 33.192ZM242.89600000000007 33.224C243.37600000000006 33.224 243.95200000000006 32.808 244.08000000000007 32.296L246.89600000000007 19.048000000000002H250.54400000000007C251.15200000000004 19.048000000000002 251.72800000000007 18.536 251.72800000000007 17.96C251.72800000000007 17.512 251.44000000000005 17.192 250.96000000000006 17.192H247.28000000000006L248.20800000000006 12.744C248.33600000000007 12.296 248.11200000000005 11.751999999999999 247.47200000000007 11.751999999999999C246.96000000000006 11.751999999999999 246.38400000000007 12.232 246.28800000000007 12.744L245.36000000000007 17.192H241.77600000000007C241.13600000000005 17.192 240.52800000000005 17.64 240.52800000000005 18.28C240.52800000000005 18.759999999999998 240.88000000000005 19.048000000000002 241.29600000000005 19.048000000000002H244.97600000000006L242.12800000000007 32.264C242.03200000000007 32.744 242.28800000000007 33.224 242.89600000000007 33.224ZM256.208 33.192C261.26400000000007 33.192 265.648 27.816 265.648 22.823999999999998C265.648 19.624000000000002 263.696 17.192 260.59200000000004 17.192C255.53600000000006 17.192 251.12000000000006 22.567999999999998 251.12000000000006 27.56C251.12000000000006 30.792 253.10400000000004 33.192 256.208 33.192ZM256.68800000000005 31.528C254.32000000000005 31.528 253.04000000000005 29.864 253.04000000000005 27.336C253.04000000000005 23.4 256.46400000000006 18.856 260.08000000000004 18.856C262.44800000000004 18.856 263.72800000000007 20.552 263.72800000000007 23.08C263.72800000000007 27.016 260.30400000000003 31.528 256.68800000000005 31.528Z"/><path fill="#167249" d="M279.53600000000006 33.192C280.04800000000006 33.192 280.59200000000004 32.776 280.68800000000005 32.296L283.5040000000001 18.951999999999998H287.82400000000007C288.24000000000007 18.951999999999998 288.88000000000005 18.503999999999998 288.88000000000005 17.832C288.88000000000005 17.544 288.56000000000006 17.192 288.2080000000001 17.192L283.88800000000003 17.16C284.7200000000001 13.448 285.9680000000001 12.968 289.68000000000006 12.968C290.22400000000005 12.968 290.86400000000003 12.488 290.86400000000003 11.815999999999999C290.86400000000003 11.271999999999998 290.35200000000003 11.143999999999998 289.68000000000006 11.143999999999998C285.20000000000005 11.143999999999998 282.96000000000004 12.616 281.9680000000001 17.16H279.6000000000001C279.05600000000004 17.16 278.54400000000004 17.671999999999997 278.54400000000004 18.247999999999998C278.54400000000004 18.631999999999998 278.86400000000003 18.951999999999998 279.28000000000003 18.951999999999998H281.58400000000006L278.76800000000003 32.296C278.64000000000004 32.776 279.05600000000004 33.192 279.53600000000006 33.192ZM292.84800000000007 33.192C294.5760000000001 33.192 296.36800000000005 32.424 297.71200000000005 31.464L297.48800000000006 32.456C297.36000000000007 33.032 297.6480000000001 33.448 298.22400000000005 33.448C298.73600000000005 33.448 299.24800000000005 33.064 299.4080000000001 32.424L302.3520000000001 18.536C301.90400000000005 18.28 300.14400000000006 17.224 297.77600000000007 17.224C292.33600000000007 17.224 287.9840000000001 23.304000000000002 287.9840000000001 28.168C287.9840000000001 31.24 289.9360000000001 33.192 292.84800000000007 33.192ZM293.20000000000005 31.4C291.1840000000001 31.4 289.9680000000001 30.376 289.9680000000001 27.816C289.9680000000001 23.592 293.7440000000001 19.048000000000002 297.48800000000006 19.048000000000002C298.5440000000001 19.048000000000002 299.6960000000001 19.432000000000002 300.24000000000007 19.688L298.0320000000001 29.512C297.1360000000001 30.216 295.0880000000001 31.4 293.20000000000005 31.4ZM305.136 33.192C305.648 33.192 306.09600000000006 32.776 306.22400000000005 32.36L306.28800000000007 32.072C307.15200000000004 32.488 308.75200000000007 32.968 310.41600000000005 32.968C313.00800000000004 32.968 315.0880000000001 31.912 316.65600000000006 29.96C318.28800000000007 27.976 319.37600000000003 24.84 319.37600000000003 22.344C319.37600000000003 19.72 318.22400000000005 17.48 315.02400000000006 17.48C312.88000000000005 17.48 310.4800000000001 18.472 308.88000000000005 20.072L310.54400000000004 12.04C310.672 11.527999999999999 310.28800000000007 11.175999999999998 309.80800000000005 11.175999999999998C309.29600000000005 11.175999999999998 308.78400000000005 11.527999999999999 308.65600000000006 12.04L304.33600000000007 32.296C304.24000000000007 32.776 304.65600000000006 33.192 305.136 33.192ZM310.51200000000006 31.144C308.75200000000007 31.144 307.15200000000004 30.568 306.672 30.312L308.04800000000006 23.784C308.59200000000004 21.352 311.47200000000004 19.368000000000002 314.70400000000006 19.368000000000002C316.81600000000003 19.368000000000002 317.48800000000006 21.0 317.48800000000006 22.759999999999998C317.48800000000006 24.584 316.68800000000005 27.176000000000002 315.63200000000006 28.616C314.4800000000001 30.248 312.81600000000003 31.144 310.51200000000006 31.144ZM322.288 33.192C322.76800000000003 33.192 323.312 32.776 323.44000000000005 32.296L324.97600000000006 25.096C325.20000000000005 24.072 325.968 22.728 326.992 21.64C328.24 20.36 329.93600000000004 19.016 331.408 19.016C332.112 19.016 332.30400000000003 19.336 332.30400000000003 19.72C332.30400000000003 20.136 332.112 20.648 332.04800000000006 20.936C332.016 21.224 332.17600000000004 21.704 332.78400000000005 21.704C333.32800000000003 21.704 333.80800000000005 21.32 333.93600000000004 20.808C334.064 20.232 334.25600000000003 19.560000000000002 334.25600000000003 19.016C334.25600000000003 18.055999999999997 333.71200000000005 17.128 332.08000000000004 17.128C329.90400000000005 17.128 327.37600000000003 18.92 325.90400000000005 20.904L326.48 18.152C326.576 17.671999999999997 326.25600000000003 17.224 325.68000000000006 17.224C325.20000000000005 17.224 324.624 17.64 324.528 18.152L321.48800000000006 32.296C321.39200000000005 32.776 321.84000000000003 33.192 322.288 33.192ZM339.15200000000004 14.631999999999998C339.63200000000006 14.631999999999998 340.17600000000004 14.248000000000001 340.30400000000003 13.672L340.59200000000004 12.392C340.72 11.911999999999999 340.4320000000001 11.431999999999999 339.88800000000003 11.431999999999999C339.37600000000003 11.431999999999999 338.86400000000003 11.847999999999999 338.73600000000005 12.36L338.41600000000005 13.64C338.28800000000007 14.216000000000001 338.70400000000006 14.631999999999998 339.15200000000004 14.631999999999998ZM335.02400000000006 33.192C335.6 33.192 336.08000000000004 32.744 336.208 32.2L339.34400000000005 18.344C339.504 17.799999999999997 339.15200000000004 17.32 338.576 17.32C338.00000000000006 17.32 337.52000000000004 17.768 337.36000000000007 18.311999999999998L334.22400000000005 32.2C334.12800000000004 32.648 334.41600000000005 33.192 335.02400000000006 33.192ZM347.34400000000005 33.192C349.87200000000007 33.192 352.36800000000005 31.72 353.68000000000006 30.28C353.9680000000001 29.96 354.1600000000001 29.704 354.1600000000001 29.352C354.1600000000001 28.936 353.8400000000001 28.648 353.39200000000005 28.648C353.0080000000001 28.648 352.6880000000001 28.872 352.4000000000001 29.192C351.1840000000001 30.472 349.6160000000001 31.432 347.6640000000001 31.432C345.58400000000006 31.432 343.44000000000005 30.152 343.44000000000005 27.368000000000002C343.44000000000005 23.912 347.1840000000001 19.016 350.41600000000005 19.016C352.04800000000006 19.016 352.78400000000005 19.72 353.4240000000001 20.744C353.5520000000001 20.904 353.7440000000001 21.032 354.0320000000001 21.032C354.6400000000001 21.032 355.21600000000007 20.52 355.21600000000007 19.912C355.21600000000007 19.752 355.1520000000001 19.560000000000002 355.0560000000001 19.4C354.1600000000001 18.055999999999997 353.1040000000001 17.224 350.7680000000001 17.224C346.51200000000006 17.224 341.5520000000001 23.016 341.5520000000001 27.752C341.5520000000001 31.016 344.0800000000001 33.192 347.34400000000005 33.192Z"/></svg>